<?xml version="1.0" encoding="UTF-8" standalone="no"?>
<svg
   fill="none"
   viewBox="0 0 184.00004 42.879"
   width="1824.7938"
   height="425.24628"
   version="1.1"
   id="svg4"
   sodipodi:docname="dmlogo.svg"
   inkscape:version="1.1.1 (3bf5ae0d25, 2021-09-20)"
   xmlns:inkscape="http://www.inkscape.org/namespaces/inkscape"
   xmlns:sodipodi="http://sodipodi.sourceforge.net/DTD/sodipodi-0.dtd"
   xmlns="http://www.w3.org/2000/svg"
   xmlns:svg="http://www.w3.org/2000/svg">
  <defs
     id="defs8" />
  <sodipodi:namedview
     id="namedview6"
     pagecolor="#ffffff"
     bordercolor="#666666"
     borderopacity="1.0"
     inkscape:pageshadow="2"
     inkscape:pageopacity="0.0"
     inkscape:pagecheckerboard="0"
     showgrid="false"
     inkscape:zoom="0.52041667"
     inkscape:cx="911.76942"
     inkscape:cy="207.52602"
     inkscape:window-width="3836"
     inkscape:window-height="2121"
     inkscape:window-x="3840"
     inkscape:window-y="18"
     inkscape:window-maximized="1"
     inkscape:current-layer="svg4" />
  <path
     fill="#ffffff"
     fill-rule="evenodd"
     d="m 21.617039,0 c -9.105,0 -14.562,7.565 -13.99,14.95 0.272,3.358 1.9,6.566 4.614,9.108 0.995,0.938 2.08,1.725 3.226,2.33 a 7.424,7.424 0 0 1 -1.689,-3.692 c -0.603,-3.722 1.84,-9.2 8.08,-9.2 6.723,0 14.11,6.416 14.743,14.284 a 15.282,15.282 0 0 1 -4.522,12.195 c 6.361,-3.722 10.642,-10.622 10.642,-18.55 a 21.415,21.415 0 0 0 -12.27,-19.397 C 27.797039,0.787 24.630039,0 21.617039,0 Z M 175.61804,16.613 c -4.432,0 -7.446,3.33 -7.446,7.899 0,4.569 3.015,7.958 7.416,7.989 2.714,0 4.432,-1.332 5.397,-2.785 l 0.301,2.421 h 2.714 v -22 h -3.015 v 9.23 c -1.055,-1.755 -2.925,-2.754 -5.367,-2.754 z m 0.483,2.603 c 2.834,0 4.854,2.148 4.854,5.326 0,3.147 -2.02,5.326 -4.854,5.326 -2.804,0 -4.854,-2.179 -4.854,-5.326 0,-3.178 2.02,-5.326 4.854,-5.326 z m -27.375,-9.048 c -1.146,0 -1.99,0.817 -1.99,1.906 0,1.12 0.844,1.937 1.99,1.937 1.176,0 2.02,-0.847 2.02,-1.937 0,-1.12 -0.875,-1.906 -2.02,-1.906 z m 1.507,6.87 h -3.015 v 15.16 h 3.015 z M 60.208039,10.803 h -6.784 v 21.365 h 6.784 c 7.477,0 10.914,-4.086 10.914,-10.652 0,-6.597 -3.437,-10.713 -10.914,-10.713 z m 7.838,10.743 c 0,5.023 -2.02,8.08 -7.929,8.08 h -3.677 v -16.28 h 3.678 c 5.88,0 7.93,3.116 7.93,8.2 z m 7.447,3.752 h 11.849 c 0.03,-0.544 0.03,-0.998 0,-1.422 0,-3.904 -2.804,-7.202 -7.236,-7.202 -4.492,0 -7.567,3.208 -7.567,7.989 0,4.72 3.105,7.868 7.537,7.868 3.557,0 6.03,-2.149 6.844,-4.993 h -3.015 c -0.603,1.513 -1.93,2.481 -3.829,2.481 -2.322,0 -4.402,-1.634 -4.583,-4.72 z m 4.613,-6.112 c 2.352,0 4.161,1.513 4.281,3.994 h -8.803 c 0.331,-2.633 2.261,-3.994 4.522,-3.994 z m 23.637001,6.112 H 91.894039 c 0.181,3.087 2.261,4.721 4.583,4.721 1.899,0 3.226,-0.968 3.829001,-2.481 h 3.015 c -0.814,2.844 -3.286,4.993 -6.844001,4.993 -4.432,0 -7.537,-3.147 -7.537,-7.868 0,-4.781 3.075,-7.99 7.567,-7.99 4.432001,0 7.236001,3.3 7.236001,7.203 0.03,0.424 0.03,0.878 0,1.422 z m -2.955,-2.118 c -0.12,-2.481 -1.929001,-3.994 -4.281001,-3.994 -2.261,0 -4.191,1.361 -4.522,3.994 z m 7.478,-6.143 h -2.714 v 21.849 h 3.015 v -9.109 c 1.055,1.755 2.925,2.754 5.336,2.754 4.432,0 7.477,-3.329 7.477,-7.898 0,-4.57 -3.045,-7.96 -7.446,-7.96 -2.714,0 -4.432,1.332 -5.367,2.785 z m 5.185,2.24 c 2.834,0 4.854,2.178 4.854,5.325 0,3.178 -2.02,5.326 -4.854,5.326 -2.804,0 -4.854,-2.148 -4.854,-5.326 0,-3.147 2.02,-5.326 4.854,-5.326 z m 31.416,-8.474 v 21.395 h -3.015 V 16.099 l -6.693,13.043 h -2.322 l -6.723,-13.043 v 16.099 h -3.015 V 10.803 h 3.527 l 7.357,14.435 7.326,-14.435 z m 21.647,12.65 v 8.745 h -2.985 v -8.443 c 0,-2.996 -1.236,-4.479 -3.678,-4.479 -2.472,0 -4.251,1.816 -4.251,5.115 v 7.807 h -3.015 V 17.037 h 2.683 l 0.211,2.663 c 0.965,-1.876 2.864,-3.026 5.216,-3.026 3.588,0 5.819,2.209 5.819,6.778 z M 35.094039,27.93 c 0.603,7.384 -4.854,14.949 -13.96,14.949 -3.014,0 -6.21,-0.756 -8.863,-2.027 A 21.416,21.416 0 0 1 3.8973509e-5,21.455 21.416,21.416 0 0 1 10.643039,2.905 15.282,15.282 0 0 0 6.120039,15.1 c 0.633,7.868 8.02,14.284 14.743,14.284 6.241,0 8.683,-5.478 8.08,-9.2 a 7.424,7.424 0 0 0 -1.688,-3.692 14.802,14.802 0 0 1 3.226,2.33 c 2.713,2.542 4.341,5.75 4.613,9.11 z"
     clip-rule="evenodd"
     id="path2" />
</svg>
