<?xml version="1.0" encoding="UTF-8"?>
<svg id="Layer_1" data-name="Layer 1" xmlns="http://www.w3.org/2000/svg" viewBox="0 0 696.21 125.84">
  <defs>
    <style>
      .cls-1 {
        fill: #f27127;
      }

      .cls-2, .cls-3 {
        fill: #f27024;
      }

      .cls-4 {
        fill: #595a5c;
      }

      .cls-5 {
        fill: #5a5c5d;
      }

      .cls-3 {
        fill-rule: evenodd;
      }
    </style>
  </defs>
  <path class="cls-4" d="M116.84,26.72c0-4.28,3.41-7.6,8.48-7.6s8.48,3.15,8.48,7.34c0,4.54-3.41,7.86-8.48,7.86s-8.48-3.32-8.48-7.6Zm1.66,14.15h13.63v47.01h-13.63V40.87Z"/>
  <g>
    <path class="cls-2" d="M142.79,57.42c0-18.24,14.21-31.74,33.59-31.74s33.59,13.42,33.59,31.74-14.29,31.74-33.59,31.74-33.59-13.5-33.59-31.74Zm52.79,0c0-11.66-8.24-19.64-19.2-19.64s-19.2,7.98-19.2,19.64,8.24,19.64,19.2,19.64,19.2-7.98,19.2-19.64Z"/>
    <path class="cls-2" d="M273.88,49c0,13.68-10.26,22.19-26.66,22.19h-12.36v16.92h-14.21V26.72h26.57c16.4,0,26.66,8.51,26.66,22.27Zm-14.38,0c0-6.75-4.38-10.7-13.07-10.7h-11.57v21.31h11.57c8.68,0,13.07-3.95,13.07-10.61Z"/>
    <path class="cls-2" d="M332.37,76.71v11.4h-47.53V26.72h46.39v11.4h-32.27v13.33h28.5v11.05h-28.5v14.21h33.41Z"/>
    <path class="cls-2" d="M382.35,88.11l-14.82-21.31-14.56,21.31h-16.31l22.71-31.22-21.57-30.17h16.14l14.12,19.91,13.86-19.91h15.35l-21.4,29.64,22.89,31.74h-16.4Z"/>
  </g>
  <path class="cls-3" d="M57.42,25.96h0v4.17c-18.45,0-31.17,9.52-31.17,30.78s12.46,30.86,31.17,30.78v4.17c-26.41,0-47.83-15.65-47.83-34.94S31.01,25.96,57.42,25.96m0,0c26.41,0,47.83,15.65,47.83,34.95s-21.42,34.94-47.83,34.94v-4.17c18.71-.08,31.26-9.02,31.17-30.78-.09-21.76-12.72-30.77-31.17-30.78v-4.17Z"/>
  <path class="cls-4" d="M77.97,106.07v2.59H36.88v-2.59h3.4c3.96,0,6.83-1.16,8.61-3.46,1.13-1.49,1.71-5.12,1.71-10.84V30.06c0-4.83-.31-8.03-.92-9.57-.48-1.18-1.45-2.19-2.9-3.03-2.07-1.13-4.25-1.68-6.51-1.68h-3.4v-2.62h41.09v2.62h-3.47c-3.91,0-6.75,1.15-8.54,3.44-1.18,1.51-1.79,5.12-1.79,10.84v61.71c0,4.83,.31,8.03,.92,9.56,.48,1.18,1.47,2.19,2.96,3.03,2.03,1.13,4.17,1.71,6.44,1.71h3.47Z"/>
  <g>
    <path class="cls-5" d="M414.4,29.62h-5.63l-.76,3.63h5.25l-.64,2.96h-5.22l-.79,3.62h6.01l-.63,2.94h-9.66l3.43-16.1h9.28l-.63,2.95Z"/>
    <path class="cls-5" d="M422.72,37l2.56,5.77h-3.94l-1.03-3.01c-.06-.17-.12-.36-.17-.56-.05-.2-.1-.39-.15-.58h-.06c-.11,.19-.22,.38-.34,.57s-.23,.37-.35,.52l-2.28,3.05h-4.18l5.12-5.82-2.46-5.68h3.95l.94,3.03c.07,.19,.14,.41,.19,.63,.05,.23,.09,.42,.11,.57h.04c.09-.16,.21-.36,.36-.58,.15-.22,.29-.41,.4-.58l2.25-3.08h4.03l-5.02,5.73Z"/>
    <path class="cls-5" d="M439.51,35.25c0,.63-.07,1.26-.2,1.89-.13,.63-.33,1.24-.6,1.82-.27,.58-.6,1.12-1.01,1.62-.4,.5-.88,.93-1.41,1.3s-1.15,.66-1.83,.86-1.42,.31-2.24,.31c-.3,0-.63-.02-.99-.07s-.67-.1-.92-.17l-1.13,5.24h-3.58l2.76-12.99c.04-.23,.1-.52,.16-.86,.06-.34,.12-.69,.17-1.05,.05-.36,.1-.71,.15-1.04s.07-.62,.08-.84h3.49c0,.11-.02,.26-.03,.43-.02,.18-.03,.36-.06,.54-.02,.19-.05,.37-.07,.54-.03,.18-.05,.32-.06,.43h.04c.21-.31,.45-.61,.71-.88,.26-.27,.55-.51,.87-.71s.67-.36,1.04-.48c.38-.12,.78-.17,1.22-.17,.51,0,.97,.09,1.4,.28,.42,.19,.79,.46,1.09,.83,.3,.36,.54,.81,.71,1.34,.17,.53,.25,1.13,.25,1.81Zm-3.56,.42c0-.26-.02-.51-.07-.75-.05-.24-.13-.44-.25-.62-.12-.18-.27-.32-.46-.43s-.43-.16-.71-.16c-.42,0-.8,.12-1.13,.36-.34,.24-.63,.56-.89,.94-.25,.39-.47,.82-.65,1.29-.18,.48-.31,.95-.41,1.42l-.59,2.63c.09,.03,.2,.06,.32,.08,.12,.02,.25,.04,.38,.06,.13,.02,.26,.03,.39,.04,.13,.01,.24,.02,.34,.02,.55,0,1.06-.14,1.52-.41,.46-.27,.86-.64,1.18-1.09,.33-.45,.59-.98,.77-1.57s.28-1.2,.28-1.83Z"/>
    <path class="cls-5" d="M452,34.24c0,.59-.12,1.13-.38,1.63-.25,.49-.67,.92-1.26,1.28s-1.37,.64-2.34,.85c-.97,.21-2.19,.32-3.64,.34-.02,.04-.02,.08-.02,.12v.11c0,.23,.04,.46,.11,.7s.2,.44,.39,.63,.43,.34,.72,.45c.3,.12,.67,.17,1.12,.17,.27,0,.56-.02,.88-.07,.32-.05,.64-.12,.97-.21,.33-.09,.66-.21,.98-.34,.33-.13,.63-.27,.9-.43l-.55,2.65c-.23,.12-.5,.24-.8,.35s-.62,.21-.97,.3c-.35,.09-.72,.16-1.11,.21-.39,.05-.79,.08-1.21,.08-.87,0-1.61-.13-2.23-.38s-1.13-.6-1.53-1.03c-.4-.43-.69-.93-.88-1.51s-.28-1.19-.28-1.84c0-.98,.16-1.91,.49-2.8s.79-1.66,1.39-2.32c.6-.67,1.33-1.2,2.18-1.59,.85-.39,1.8-.59,2.85-.59,.76,0,1.4,.09,1.93,.27s.97,.42,1.3,.72c.34,.3,.58,.65,.74,1.04,.16,.39,.23,.79,.23,1.21Zm-3.38,.04c0-.28-.1-.51-.31-.69-.21-.18-.5-.28-.87-.28-.33,0-.65,.07-.95,.21s-.58,.34-.83,.59c-.25,.25-.47,.55-.65,.9-.18,.35-.31,.72-.4,1.13,1.35,.02,2.35-.14,3.02-.46s.99-.79,.99-1.4Z"/>
    <path class="cls-5" d="M461.49,34.54h-.02c-.16-.08-.36-.16-.6-.22-.24-.07-.47-.1-.68-.1-.44,0-.84,.1-1.19,.3-.35,.2-.66,.47-.93,.8s-.5,.73-.68,1.18c-.18,.45-.33,.93-.44,1.44l-1.01,4.83h-3.59l1.57-7.33c.08-.35,.15-.71,.22-1.09,.07-.37,.14-.74,.2-1.11,.06-.36,.12-.71,.17-1.05s.09-.64,.12-.92h3.52c-.02,.22-.05,.44-.07,.67-.03,.23-.05,.46-.08,.67-.03,.21-.05,.41-.08,.58-.03,.17-.05,.31-.06,.4h.04c.46-.86,.95-1.51,1.46-1.95,.51-.44,1.11-.66,1.78-.66,.2,0,.39,.02,.57,.06s.36,.07,.5,.09l-.72,3.4Z"/>
    <path class="cls-5" d="M467.39,42.67c-.13,.04-.29,.07-.47,.11s-.36,.07-.56,.11c-.2,.03-.4,.06-.62,.08-.21,.02-.43,.03-.63,.03-.5,0-.93-.07-1.29-.2-.36-.13-.65-.31-.88-.55-.23-.24-.4-.52-.51-.84-.11-.33-.16-.68-.16-1.07,0-.16,0-.35,.03-.55,.02-.2,.04-.41,.07-.63,.03-.22,.06-.45,.11-.67,.04-.23,.09-.45,.13-.66,.03-.13,.08-.36,.15-.7,.07-.34,.15-.73,.25-1.17s.19-.91,.3-1.4c.11-.49,.2-.96,.3-1.4s.18-.83,.25-1.17c.07-.34,.12-.57,.15-.7h3.59l-1.37,6.47c-.06,.26-.12,.56-.19,.88-.07,.33-.1,.61-.1,.85,0,.28,.09,.48,.27,.6s.38,.17,.62,.17c.19,0,.39-.02,.59-.06,.2-.04,.38-.1,.54-.16-.1,.45-.19,.89-.28,1.33-.09,.44-.18,.88-.28,1.33Zm1.17-15.1c0,.29-.06,.55-.17,.79-.11,.23-.26,.43-.46,.6-.19,.17-.42,.3-.67,.39s-.54,.13-.84,.13-.55-.04-.79-.13c-.24-.09-.45-.21-.63-.36-.18-.15-.31-.34-.42-.54-.1-.21-.15-.44-.15-.69,0-.29,.05-.55,.16-.79,.11-.23,.26-.43,.45-.6,.19-.17,.42-.3,.68-.39s.55-.13,.85-.13c.29,0,.55,.04,.79,.13,.24,.09,.45,.21,.62,.36,.18,.15,.31,.33,.41,.54,.1,.21,.15,.44,.15,.69Z"/>
    <path class="cls-5" d="M480.48,34.24c0,.59-.12,1.13-.38,1.63-.25,.49-.67,.92-1.26,1.28s-1.37,.64-2.34,.85c-.97,.21-2.19,.32-3.64,.34-.02,.04-.02,.08-.02,.12v.11c0,.23,.04,.46,.11,.7s.2,.44,.39,.63,.43,.34,.72,.45c.3,.12,.67,.17,1.12,.17,.27,0,.56-.02,.88-.07,.32-.05,.64-.12,.97-.21,.33-.09,.66-.21,.98-.34,.33-.13,.63-.27,.9-.43l-.55,2.65c-.23,.12-.5,.24-.8,.35s-.62,.21-.97,.3c-.35,.09-.72,.16-1.11,.21-.39,.05-.79,.08-1.21,.08-.87,0-1.61-.13-2.23-.38s-1.13-.6-1.53-1.03c-.4-.43-.69-.93-.88-1.51s-.28-1.19-.28-1.84c0-.98,.16-1.91,.49-2.8s.79-1.66,1.39-2.32c.6-.67,1.33-1.2,2.18-1.59,.85-.39,1.8-.59,2.85-.59,.76,0,1.4,.09,1.93,.27s.97,.42,1.3,.72c.34,.3,.58,.65,.74,1.04,.16,.39,.23,.79,.23,1.21Zm-3.38,.04c0-.28-.1-.51-.31-.69-.21-.18-.5-.28-.87-.28-.33,0-.65,.07-.95,.21s-.58,.34-.83,.59c-.25,.25-.47,.55-.65,.9-.18,.35-.31,.72-.4,1.13,1.35,.02,2.35-.14,3.02-.46s.99-.79,.99-1.4Z"/>
    <path class="cls-5" d="M493.56,34.02c0,.11-.01,.26-.03,.45-.02,.19-.05,.38-.08,.58-.04,.2-.07,.4-.11,.59-.04,.19-.07,.35-.1,.49l-1.4,6.65h-3.56l1.38-6.56c.04-.24,.09-.49,.13-.74s.07-.45,.07-.58c0-.36-.09-.65-.28-.86-.18-.21-.46-.32-.83-.32-.31,0-.63,.1-.96,.29-.33,.19-.64,.44-.94,.76-.29,.31-.55,.68-.77,1.08-.22,.41-.38,.83-.46,1.25l-1.19,5.68h-3.62l1.71-7.88c.07-.34,.13-.69,.2-1.04,.07-.35,.13-.68,.18-1,.05-.32,.1-.61,.14-.89,.04-.27,.07-.5,.1-.69h3.5c-.02,.21-.05,.43-.07,.66-.03,.23-.05,.45-.08,.66-.03,.21-.05,.4-.07,.56-.02,.16-.04,.27-.06,.34h.04c.26-.34,.56-.67,.89-.97,.33-.3,.68-.57,1.05-.79s.75-.4,1.15-.53c.4-.13,.79-.2,1.19-.2,.95,0,1.67,.26,2.15,.79,.48,.53,.72,1.27,.72,2.23Z"/>
    <path class="cls-5" d="M504.52,34.43c-.26-.19-.58-.36-.99-.51s-.84-.21-1.31-.21c-.55,0-1.04,.13-1.48,.38s-.82,.58-1.12,.99-.54,.86-.71,1.36c-.17,.5-.25,1-.25,1.48,0,.77,.18,1.37,.54,1.79s.9,.63,1.62,.63c.22,0,.46-.02,.7-.07,.24-.04,.49-.11,.72-.19,.24-.08,.47-.17,.69-.26s.42-.2,.6-.31l-.55,2.72c-.51,.26-1.05,.47-1.63,.61-.58,.15-1.15,.22-1.73,.22-.75,0-1.41-.12-1.97-.35-.56-.23-1.04-.56-1.42-.98-.38-.42-.67-.92-.86-1.5-.19-.58-.29-1.22-.29-1.91,0-.64,.07-1.27,.22-1.88,.14-.61,.36-1.18,.63-1.72,.28-.54,.62-1.04,1.03-1.49s.88-.85,1.4-1.18c.53-.33,1.11-.59,1.75-.77,.64-.18,1.33-.27,2.07-.27,.35,0,.67,.02,.98,.06,.31,.04,.59,.09,.84,.16s.48,.13,.67,.21c.19,.08,.35,.15,.47,.22l-.64,2.79Z"/>
    <path class="cls-5" d="M516.6,34.24c0,.59-.12,1.13-.38,1.63-.25,.49-.67,.92-1.26,1.28s-1.37,.64-2.34,.85c-.97,.21-2.19,.32-3.64,.34-.02,.04-.02,.08-.02,.12v.11c0,.23,.04,.46,.11,.7s.2,.44,.39,.63,.43,.34,.72,.45c.3,.12,.67,.17,1.12,.17,.27,0,.56-.02,.88-.07,.32-.05,.64-.12,.97-.21,.33-.09,.66-.21,.98-.34,.33-.13,.63-.27,.9-.43l-.55,2.65c-.23,.12-.5,.24-.8,.35s-.62,.21-.97,.3c-.35,.09-.72,.16-1.11,.21-.39,.05-.79,.08-1.21,.08-.87,0-1.61-.13-2.23-.38s-1.13-.6-1.53-1.03c-.4-.43-.69-.93-.88-1.51s-.28-1.19-.28-1.84c0-.98,.16-1.91,.49-2.8s.79-1.66,1.39-2.32c.6-.67,1.33-1.2,2.18-1.59,.85-.39,1.8-.59,2.85-.59,.76,0,1.4,.09,1.93,.27s.97,.42,1.3,.72c.34,.3,.58,.65,.74,1.04,.16,.39,.23,.79,.23,1.21Zm-3.38,.04c0-.28-.1-.51-.31-.69-.21-.18-.5-.28-.87-.28-.33,0-.65,.07-.95,.21s-.58,.34-.83,.59c-.25,.25-.47,.55-.65,.9-.18,.35-.31,.72-.4,1.13,1.35,.02,2.35-.14,3.02-.46s.99-.79,.99-1.4Z"/>
    <path class="cls-5" d="M535.7,29.62h-5.63l-.76,3.63h5.24l-.64,2.96h-5.22l-.79,3.62h6.01l-.63,2.94h-9.66l3.42-16.1h9.28l-.63,2.95Z"/>
    <path class="cls-5" d="M548.19,34.02c0,.11-.01,.26-.03,.45-.02,.19-.05,.38-.08,.58-.04,.2-.07,.4-.11,.59-.04,.19-.07,.35-.1,.49l-1.4,6.65h-3.56l1.38-6.56c.04-.24,.09-.49,.13-.74s.07-.45,.07-.58c0-.36-.09-.65-.28-.86-.18-.21-.46-.32-.83-.32-.31,0-.63,.1-.96,.29-.33,.19-.64,.44-.94,.76-.29,.31-.55,.68-.77,1.08-.22,.41-.38,.83-.46,1.25l-1.19,5.68h-3.62l1.71-7.88c.07-.34,.13-.69,.2-1.04,.07-.35,.13-.68,.18-1,.05-.32,.1-.61,.14-.89,.04-.27,.07-.5,.1-.69h3.5c-.02,.21-.05,.43-.07,.66-.03,.23-.05,.45-.08,.66-.03,.21-.05,.4-.07,.56-.02,.16-.04,.27-.06,.34h.04c.26-.34,.56-.67,.89-.97,.33-.3,.68-.57,1.05-.79s.75-.4,1.15-.53c.4-.13,.79-.2,1.19-.2,.95,0,1.67,.26,2.15,.79,.48,.53,.72,1.27,.72,2.23Z"/>
    <path class="cls-5" d="M560.24,41.39c-.21,1-.49,1.92-.84,2.75s-.83,1.54-1.43,2.14c-.6,.59-1.35,1.06-2.26,1.39-.91,.33-2.02,.5-3.34,.5-.73,0-1.4-.08-2.01-.23s-1.19-.36-1.72-.61l.63-2.85c.47,.31,.99,.57,1.55,.77,.56,.2,1.15,.3,1.77,.3,.58,0,1.1-.08,1.53-.24s.82-.39,1.13-.7,.58-.69,.79-1.14c.21-.45,.38-.98,.51-1.57l.2-1.01h-.04c-.19,.29-.41,.57-.64,.83-.23,.26-.49,.48-.77,.68-.28,.19-.59,.35-.93,.47-.34,.12-.72,.17-1.15,.17-.58,0-1.1-.11-1.53-.32-.44-.21-.8-.51-1.1-.89-.3-.38-.52-.84-.67-1.37-.15-.53-.22-1.12-.22-1.76s.07-1.28,.21-1.92c.14-.63,.35-1.24,.62-1.81,.28-.57,.62-1.1,1.04-1.59,.42-.49,.91-.91,1.46-1.26,.56-.36,1.19-.63,1.88-.84,.7-.2,1.46-.3,2.3-.3,.46,0,.93,.02,1.39,.05,.46,.03,.91,.08,1.35,.13,.44,.06,.86,.12,1.25,.19,.4,.07,.76,.14,1.1,.21l-2.08,9.82Zm-2.51-7.88c-.23-.02-.47-.03-.72-.03-.52,0-1,.13-1.46,.38s-.85,.6-1.18,1.04c-.34,.44-.6,.96-.8,1.56-.2,.6-.29,1.24-.29,1.93,0,.28,.03,.53,.08,.77,.06,.24,.14,.44,.26,.61,.12,.17,.27,.31,.44,.4s.38,.15,.61,.15c.3,0,.57-.06,.82-.18,.25-.12,.48-.28,.69-.49,.21-.21,.39-.44,.55-.71,.16-.27,.3-.55,.43-.85s.24-.6,.33-.91,.17-.6,.23-.88l.6-2.72c-.17-.04-.37-.07-.6-.08Z"/>
    <path class="cls-5" d="M568.66,42.67c-.13,.04-.29,.07-.46,.11s-.36,.07-.56,.11c-.2,.03-.4,.06-.62,.08-.21,.02-.42,.03-.63,.03-.5,0-.93-.07-1.29-.2-.36-.13-.65-.31-.88-.55-.23-.24-.4-.52-.51-.84-.11-.33-.16-.68-.16-1.07,0-.16,0-.35,.03-.55,.02-.2,.04-.41,.07-.63,.03-.22,.07-.45,.11-.67,.04-.23,.08-.45,.13-.66,.03-.13,.08-.36,.15-.7,.07-.34,.15-.73,.25-1.17s.19-.91,.3-1.4c.11-.49,.21-.96,.3-1.4s.18-.83,.25-1.17c.07-.34,.12-.57,.15-.7h3.59l-1.37,6.47c-.06,.26-.12,.56-.19,.88-.07,.33-.1,.61-.1,.85,0,.28,.09,.48,.27,.6s.38,.17,.62,.17c.2,0,.39-.02,.59-.06,.2-.04,.38-.1,.54-.16-.1,.45-.19,.89-.28,1.33-.09,.44-.18,.88-.28,1.33Zm1.17-15.1c0,.29-.05,.55-.17,.79-.11,.23-.26,.43-.46,.6-.19,.17-.41,.3-.67,.39-.26,.09-.54,.13-.84,.13s-.55-.04-.79-.13c-.24-.09-.45-.21-.63-.36-.18-.15-.31-.34-.42-.54s-.15-.44-.15-.69c0-.29,.05-.55,.16-.79,.11-.23,.26-.43,.45-.6,.19-.17,.42-.3,.68-.39,.26-.09,.55-.13,.85-.13,.29,0,.55,.04,.79,.13,.24,.09,.45,.21,.62,.36,.18,.15,.31,.33,.42,.54s.15,.44,.15,.69Z"/>
    <path class="cls-5" d="M582.88,34.02c0,.11-.01,.26-.03,.45-.02,.19-.05,.38-.08,.58-.04,.2-.07,.4-.11,.59-.04,.19-.07,.35-.1,.49l-1.4,6.65h-3.56l1.38-6.56c.04-.24,.09-.49,.13-.74s.07-.45,.07-.58c0-.36-.09-.65-.28-.86-.18-.21-.46-.32-.83-.32-.31,0-.63,.1-.96,.29-.33,.19-.64,.44-.94,.76-.29,.31-.55,.68-.77,1.08-.22,.41-.38,.83-.46,1.25l-1.19,5.68h-3.62l1.71-7.88c.07-.34,.13-.69,.2-1.04,.07-.35,.13-.68,.18-1,.05-.32,.1-.61,.14-.89,.04-.27,.07-.5,.1-.69h3.5c-.02,.21-.05,.43-.07,.66-.03,.23-.05,.45-.08,.66-.03,.21-.05,.4-.07,.56-.02,.16-.04,.27-.06,.34h.04c.26-.34,.56-.67,.89-.97,.33-.3,.68-.57,1.05-.79s.75-.4,1.15-.53c.4-.13,.79-.2,1.19-.2,.95,0,1.67,.26,2.15,.79,.48,.53,.72,1.27,.72,2.23Z"/>
    <path class="cls-5" d="M595.52,34.24c0,.59-.12,1.13-.38,1.63-.25,.49-.67,.92-1.26,1.28s-1.37,.64-2.34,.85c-.97,.21-2.19,.32-3.64,.34-.02,.04-.02,.08-.02,.12v.11c0,.23,.04,.46,.11,.7,.07,.23,.2,.44,.39,.63s.42,.34,.72,.45c.3,.12,.67,.17,1.12,.17,.27,0,.56-.02,.88-.07,.32-.05,.64-.12,.97-.21,.33-.09,.66-.21,.98-.34,.32-.13,.63-.27,.9-.43l-.55,2.65c-.23,.12-.5,.24-.8,.35-.3,.11-.62,.21-.97,.3s-.72,.16-1.11,.21-.79,.08-1.21,.08c-.87,0-1.61-.13-2.23-.38-.62-.25-1.13-.6-1.53-1.03-.4-.43-.7-.93-.88-1.51s-.28-1.19-.28-1.84c0-.98,.16-1.91,.49-2.8,.32-.88,.79-1.66,1.39-2.32,.6-.67,1.33-1.2,2.18-1.59,.85-.39,1.8-.59,2.85-.59,.76,0,1.4,.09,1.93,.27s.96,.42,1.3,.72c.34,.3,.58,.65,.74,1.04,.16,.39,.24,.79,.24,1.21Zm-3.38,.04c0-.28-.1-.51-.31-.69-.21-.18-.5-.28-.87-.28-.33,0-.65,.07-.95,.21-.3,.14-.58,.34-.83,.59-.25,.25-.46,.55-.64,.9-.18,.35-.31,.72-.4,1.13,1.35,.02,2.35-.14,3.01-.46,.66-.32,.99-.79,.99-1.4Z"/>
    <path class="cls-5" d="M607.48,34.24c0,.59-.12,1.13-.38,1.63-.25,.49-.67,.92-1.26,1.28s-1.37,.64-2.34,.85c-.97,.21-2.19,.32-3.64,.34-.02,.04-.02,.08-.02,.12v.11c0,.23,.04,.46,.11,.7,.07,.23,.2,.44,.39,.63s.42,.34,.72,.45c.3,.12,.67,.17,1.12,.17,.27,0,.56-.02,.88-.07,.32-.05,.64-.12,.97-.21,.33-.09,.66-.21,.98-.34,.32-.13,.63-.27,.9-.43l-.55,2.65c-.23,.12-.5,.24-.8,.35-.3,.11-.62,.21-.97,.3s-.72,.16-1.11,.21-.79,.08-1.21,.08c-.87,0-1.61-.13-2.23-.38-.62-.25-1.13-.6-1.53-1.03-.4-.43-.7-.93-.88-1.51s-.28-1.19-.28-1.84c0-.98,.16-1.91,.49-2.8,.32-.88,.79-1.66,1.39-2.32,.6-.67,1.33-1.2,2.18-1.59,.85-.39,1.8-.59,2.85-.59,.76,0,1.4,.09,1.93,.27s.96,.42,1.3,.72c.34,.3,.58,.65,.74,1.04,.16,.39,.24,.79,.24,1.21Zm-3.38,.04c0-.28-.1-.51-.31-.69-.21-.18-.5-.28-.87-.28-.33,0-.65,.07-.95,.21-.3,.14-.58,.34-.83,.59-.25,.25-.46,.55-.64,.9-.18,.35-.31,.72-.4,1.13,1.35,.02,2.35-.14,3.01-.46,.66-.32,.99-.79,.99-1.4Z"/>
    <path class="cls-5" d="M616.97,34.54h-.02c-.16-.08-.36-.16-.6-.22-.24-.07-.47-.1-.68-.1-.44,0-.84,.1-1.19,.3-.35,.2-.66,.47-.93,.8s-.5,.73-.68,1.18c-.18,.45-.33,.93-.44,1.44l-1.01,4.83h-3.59l1.57-7.33c.07-.35,.15-.71,.22-1.09,.07-.37,.14-.74,.2-1.11,.06-.36,.12-.71,.17-1.05s.09-.64,.12-.92h3.52c-.02,.22-.05,.44-.07,.67-.03,.23-.05,.46-.08,.67-.03,.21-.05,.41-.08,.58-.03,.17-.05,.31-.06,.4h.04c.46-.86,.95-1.51,1.47-1.95,.51-.44,1.11-.66,1.78-.66,.2,0,.38,.02,.57,.06s.36,.07,.51,.09l-.72,3.4Z"/>
    <path class="cls-5" d="M622.86,42.67c-.13,.04-.29,.07-.46,.11s-.36,.07-.56,.11c-.2,.03-.4,.06-.62,.08-.21,.02-.42,.03-.63,.03-.5,0-.93-.07-1.29-.2-.36-.13-.65-.31-.88-.55-.23-.24-.4-.52-.51-.84-.11-.33-.16-.68-.16-1.07,0-.16,0-.35,.03-.55,.02-.2,.04-.41,.07-.63,.03-.22,.07-.45,.11-.67,.04-.23,.08-.45,.13-.66,.03-.13,.08-.36,.15-.7,.07-.34,.15-.73,.25-1.17s.19-.91,.3-1.4c.11-.49,.21-.96,.3-1.4s.18-.83,.25-1.17c.07-.34,.12-.57,.15-.7h3.59l-1.37,6.47c-.06,.26-.12,.56-.19,.88-.07,.33-.1,.61-.1,.85,0,.28,.09,.48,.27,.6s.38,.17,.62,.17c.2,0,.39-.02,.59-.06,.2-.04,.38-.1,.54-.16-.1,.45-.19,.89-.28,1.33-.09,.44-.18,.88-.28,1.33Zm1.17-15.1c0,.29-.05,.55-.17,.79-.11,.23-.26,.43-.46,.6-.19,.17-.41,.3-.67,.39-.26,.09-.54,.13-.84,.13s-.55-.04-.79-.13c-.24-.09-.45-.21-.63-.36-.18-.15-.31-.34-.42-.54s-.15-.44-.15-.69c0-.29,.05-.55,.16-.79,.11-.23,.26-.43,.45-.6,.19-.17,.42-.3,.68-.39,.26-.09,.55-.13,.85-.13,.29,0,.55,.04,.79,.13,.24,.09,.45,.21,.62,.36,.18,.15,.31,.33,.42,.54s.15,.44,.15,.69Z"/>
    <path class="cls-5" d="M637.08,34.02c0,.11-.01,.26-.03,.45-.02,.19-.05,.38-.08,.58-.04,.2-.07,.4-.11,.59-.04,.19-.07,.35-.1,.49l-1.4,6.65h-3.56l1.38-6.56c.04-.24,.09-.49,.13-.74s.07-.45,.07-.58c0-.36-.09-.65-.28-.86-.18-.21-.46-.32-.83-.32-.31,0-.63,.1-.96,.29-.33,.19-.64,.44-.94,.76-.29,.31-.55,.68-.77,1.08-.22,.41-.38,.83-.46,1.25l-1.19,5.68h-3.62l1.71-7.88c.07-.34,.13-.69,.2-1.04,.07-.35,.13-.68,.18-1,.05-.32,.1-.61,.14-.89,.04-.27,.07-.5,.1-.69h3.5c-.02,.21-.05,.43-.07,.66-.03,.23-.05,.45-.08,.66-.03,.21-.05,.4-.07,.56-.02,.16-.04,.27-.06,.34h.04c.26-.34,.56-.67,.89-.97,.33-.3,.68-.57,1.05-.79s.75-.4,1.15-.53c.4-.13,.79-.2,1.19-.2,.95,0,1.67,.26,2.15,.79,.48,.53,.72,1.27,.72,2.23Z"/>
    <path class="cls-5" d="M649.13,41.39c-.21,1-.49,1.92-.84,2.75s-.83,1.54-1.43,2.14c-.6,.59-1.35,1.06-2.26,1.39-.91,.33-2.02,.5-3.34,.5-.72,0-1.39-.08-2.01-.23-.61-.15-1.19-.36-1.72-.61l.63-2.85c.47,.31,.99,.57,1.55,.77,.56,.2,1.15,.3,1.77,.3,.58,0,1.1-.08,1.53-.24,.44-.16,.82-.39,1.13-.7s.58-.69,.79-1.14c.21-.45,.38-.98,.51-1.57l.2-1.01h-.04c-.2,.29-.41,.57-.64,.83-.23,.26-.49,.48-.77,.68s-.59,.35-.93,.47c-.34,.12-.72,.17-1.15,.17-.58,0-1.09-.11-1.53-.32-.44-.21-.8-.51-1.1-.89-.29-.38-.52-.84-.67-1.37s-.22-1.12-.22-1.76,.07-1.28,.21-1.92c.14-.63,.35-1.24,.62-1.81,.28-.57,.63-1.1,1.04-1.59,.42-.49,.91-.91,1.47-1.26,.56-.36,1.18-.63,1.88-.84,.7-.2,1.46-.3,2.3-.3,.46,0,.93,.02,1.39,.05,.46,.03,.91,.08,1.35,.13,.44,.06,.86,.12,1.25,.19,.4,.07,.76,.14,1.1,.21l-2.08,9.82Zm-2.51-7.88c-.23-.02-.47-.03-.72-.03-.52,0-1,.13-1.45,.38s-.85,.6-1.19,1.04c-.34,.44-.6,.96-.8,1.56s-.29,1.24-.29,1.93c0,.28,.03,.53,.09,.77,.05,.24,.14,.44,.26,.61,.12,.17,.27,.31,.44,.4s.38,.15,.61,.15c.3,0,.57-.06,.83-.18,.25-.12,.48-.28,.69-.49,.21-.21,.39-.44,.55-.71,.16-.27,.31-.55,.43-.85s.24-.6,.33-.91,.17-.6,.23-.88l.6-2.72c-.17-.04-.37-.07-.6-.08Z"/>
  </g>
  <path class="cls-1" d="M666.72,31.51c-1.96,0-3.7-1.52-4.78-2.83-1.3,1.3-2.83,2.83-5,2.83-2.61,0-4.57-1.96-4.57-4.78s2.17-4.78,4.78-4.78c1.96,0,3.7,1.52,4.78,2.83,1.3-1.3,2.83-2.83,5-2.83,2.61,0,4.57,1.96,4.57,4.78,0,2.61-2.17,4.78-4.78,4.78m-2.83-4.57c.87,.87,1.74,1.74,2.83,1.74s1.96-.87,1.96-1.96-.65-1.96-1.74-1.96c-1.3,0-2.39,.87-3.04,2.17-.22-.22,0-.22,0,0m-6.96-2.17c-1.09,0-1.96,.87-1.96,1.96s.65,1.96,1.74,1.96,2.17-1.09,3.04-1.96l-.22-.22c-.65-.87-1.52-1.74-2.61-1.74"/>
  <g>
    <path class="cls-5" d="M407.05,69.91h-6.22v-4.37h17.73v4.37h-6.3v18.66h-5.21v-18.66Z"/>
    <path class="cls-5" d="M436.17,78.83h-8.48v5.48h9.47v4.27h-14.68v-23.03h14.19v4.27h-8.98v4.8h8.48v4.23Z"/>
    <path class="cls-5" d="M458.8,87.93c-.93,.46-3.11,.99-5.89,.99-7.98,0-12.09-4.98-12.09-11.55,0-7.85,5.63-12.2,12.58-12.2,2.71,0,4.77,.53,5.67,1.02l-1.06,4.12c-1.04-.45-2.51-.86-4.38-.86-4.11,0-7.33,2.51-7.33,7.62,0,4.62,2.72,7.52,7.36,7.52,1.6,0,3.32-.31,4.35-.74l.78,4.08Z"/>
    <path class="cls-5" d="M468.61,65.54v8.86h8.59v-8.86h5.21v23.03h-5.21v-9.64h-8.59v9.64h-5.21v-23.03h5.21Z"/>
    <path class="cls-5" d="M488.11,88.57v-23.03h6.07l4.78,8.45c1.38,2.41,2.73,5.3,3.76,7.9h.09c-.32-3.06-.42-6.15-.42-9.63v-6.71h4.78v23.03h-5.46l-4.94-8.87c-1.37-2.49-2.89-5.44-4-8.14h-.11c.16,3.06,.23,6.32,.23,10.08v6.92h-4.78Z"/>
    <path class="cls-5" d="M533.92,76.82c0,7.56-4.56,12.12-11.3,12.12s-10.85-5.17-10.85-11.74,4.43-12.05,11.21-12.05,10.93,5.29,10.93,11.66Zm-16.64,.29c0,4.51,2.13,7.69,5.6,7.69s5.53-3.33,5.53-7.81c0-4.15-1.96-7.7-5.55-7.7s-5.59,3.33-5.59,7.81Z"/>
    <path class="cls-5" d="M538.52,65.54h5.21v18.67h9.16v4.36h-14.37v-23.03Z"/>
    <path class="cls-5" d="M576.91,76.82c0,7.56-4.56,12.12-11.3,12.12s-10.85-5.17-10.85-11.74,4.43-12.05,11.21-12.05,10.93,5.29,10.93,11.66Zm-16.64,.29c0,4.51,2.13,7.69,5.6,7.69s5.53-3.33,5.53-7.81c0-4.15-1.96-7.7-5.55-7.7s-5.59,3.33-5.59,7.81Z"/>
    <path class="cls-5" d="M600.75,87.51c-1.61,.56-4.65,1.29-7.69,1.29-4.21,0-7.24-1.05-9.36-3.09-2.11-2-3.27-5-3.26-8.39,.03-7.66,5.61-12.02,13.15-12.02,2.97,0,5.26,.56,6.4,1.11l-1.09,4.17c-1.28-.55-2.83-.98-5.36-.98-4.34,0-7.64,2.44-7.64,7.45s3,7.54,7.27,7.54c1.18,0,2.13-.14,2.55-.32v-4.84h-3.56v-4.06h8.59v12.13Z"/>
    <path class="cls-5" d="M611.19,65.54v23.03h-5.21v-23.03h5.21Z"/>
    <path class="cls-5" d="M630.57,78.83h-8.48v5.48h9.47v4.27h-14.68v-23.03h14.19v4.27h-8.98v4.8h8.48v4.23Z"/>
    <path class="cls-5" d="M636.47,83.19c1.38,.74,3.55,1.45,5.77,1.45,2.39,0,3.66-.99,3.66-2.51,0-1.41-1.1-2.25-3.86-3.22-3.84-1.36-6.35-3.46-6.35-6.82,0-3.93,3.3-6.91,8.71-6.91,2.63,0,4.52,.52,5.88,1.16l-1.15,4.18c-.91-.44-2.57-1.09-4.81-1.09s-3.35,1.05-3.35,2.23c0,1.46,1.28,2.11,4.26,3.24,4.08,1.52,5.97,3.64,5.97,6.9,0,3.85-2.94,7.15-9.29,7.15-2.61,0-5.22-.71-6.51-1.43l1.05-4.3Z"/>
  </g>
</svg>